<svg width="18" height="18" viewBox="0 0 18 18" fill="none" xmlns="http://www.w3.org/2000/svg">
<path d="M2.55574 16.8004H15.3759C15.5727 16.8015 15.7629 16.7324 15.9098 16.6065C16.0568 16.4805 16.1501 16.3066 16.1717 16.1183L16.8004 7.03322C16.8037 6.93172 16.7854 6.83064 16.7466 6.73621C16.7078 6.64179 16.6493 6.55603 16.5747 6.48422C16.5001 6.41241 16.4111 6.35608 16.313 6.3187C16.215 6.28131 16.11 6.26368 16.0046 6.26687H1.79576C1.5847 6.26687 1.38229 6.34761 1.23305 6.49133C1.08381 6.63505 0.999969 6.82997 0.999969 7.03322L1.75995 16.126C1.78341 16.3129 1.8775 16.4849 2.02428 16.6093C2.17105 16.7337 2.36023 16.8017 2.55574 16.8004V16.8004Z" stroke="black" stroke-width="1.4" stroke-linecap="round" stroke-linejoin="round"/>
<path d="M12.8506 8.90037V4.76207C12.8506 3.7643 12.4344 2.8074 11.6936 2.10187C10.9528 1.39634 9.94805 0.999981 8.90039 0.999981C7.85274 0.999981 6.84799 1.39634 6.10718 2.10187C5.36638 2.8074 4.9502 3.7643 4.9502 4.76207V8.90037" stroke="black" stroke-width="1.4" stroke-linecap="round" stroke-linejoin="round"/>
</svg>
